<?xml version="1.0" encoding="UTF-8" standalone="no"?>
<!-- Created with Inkscape (http://www.inkscape.org/) -->

<svg
   xmlns:dc="http://purl.org/dc/elements/1.1/"
   xmlns:cc="http://creativecommons.org/ns#"
   xmlns:rdf="http://www.w3.org/1999/02/22-rdf-syntax-ns#"
   xmlns:svg="http://www.w3.org/2000/svg"
   xmlns="http://www.w3.org/2000/svg"
   xmlns:xlink="http://www.w3.org/1999/xlink"
   xmlns:sodipodi="http://sodipodi.sourceforge.net/DTD/sodipodi-0.dtd"
   xmlns:inkscape="http://www.inkscape.org/namespaces/inkscape"
   id="svg2"
   sodipodi:docname="ABC.svg"
   viewBox="0 0 600 600"
   version="1.1"
   inkscape:version="0.92.2 (5c3e80d, 2017-08-06)"
   width="600"
   height="600">
  <defs
     id="defs4">
    <linearGradient
       inkscape:collect="always"
       id="linearGradient9066">
      <stop
         style="stop-color:#af0000;stop-opacity:1"
         offset="0"
         id="stop9062" />
      <stop
         style="stop-color:#ff0a0a;stop-opacity:1"
         offset="1"
         id="stop9064" />
    </linearGradient>
    <linearGradient
       inkscape:collect="always"
       id="linearGradient7665">
      <stop
         style="stop-color:#000000;stop-opacity:0.863"
         offset="0"
         id="stop7661" />
      <stop
         id="stop7669"
         offset="0.760915041"
         style="stop-color:#000000;stop-opacity:0.514" />
      <stop
         style="stop-color:#000000;stop-opacity:0;"
         offset="1"
         id="stop7663" />
    </linearGradient>
    <filter
       inkscape:label="noise"
       id="filter5264"
       style="color-interpolation-filters:sRGB"
       x="0"
       y="0"
       height="1"
       width="1">
      <feFlood
         result="result6"
         id="feFlood5220" />
      <feFlood
         result="result4"
         flood-color="rgb(255,255,255)"
         id="feFlood5222" />
      <feTurbulence
         result="result2"
         type="fractalNoise"
         seed="69.069069069069073"
         numOctaves="1"
         baseFrequency="0.47999999999999998"
         id="feTurbulence5224">
        <animate
           attributeName="seed"
           from="500"
           to="0"
           dur="100s"
           repeatCount="indefinite" />
      </feTurbulence>
      <feTurbulence
         result="result7"
         type="fractalNoise"
         baseFrequency="0.47999999999999998"
         seed="78.078078078078079"
         id="feTurbulence5226">
        <animate
           attributeName="seed"
           from="1000"
           to="500"
           dur="100s"
           repeatCount="indefinite" />
      </feTurbulence>
      <feFlood
         result="result1"
         id="feFlood5228" />
      <feComponentTransfer
         result="result3"
         in="result2"
         id="feComponentTransfer5238">
        <feFuncR
           type="identity"
           id="feFuncR5230" />
        <feFuncG
           type="identity"
           id="feFuncG5232" />
        <feFuncB
           type="identity"
           id="feFuncB5234" />
        <feFuncA
           intercept="-0.59999999999999998"
           slope="2.3999999999999999"
           type="linear"
           id="feFuncA5236" />
      </feComponentTransfer>
      <feComposite
         result="result5"
         in="result4"
         operator="in"
         id="feComposite5240"
         in2="result3" />
      <feComposite
         result="result9"
         in="result5"
         id="feComposite5242"
         in2="result6" />
      <feComponentTransfer
         result="result8"
         in="result7"
         id="feComponentTransfer5252">
        <feFuncR
           type="identity"
           id="feFuncR5244" />
        <feFuncG
           type="identity"
           id="feFuncG5246" />
        <feFuncB
           type="identity"
           id="feFuncB5248" />
        <feFuncA
           intercept="-0.12"
           slope="1.6000000000000001"
           type="linear"
           id="feFuncA5250" />
      </feComponentTransfer>
      <feComposite
         result="result10"
         operator="in"
         in="result9"
         id="feComposite5254"
         in2="result8" />
      <feComposite
         k4="0"
         k1="0"
         result="result11"
         k3="0.1"
         k2="0.1"
         operator="arithmetic"
         id="feComposite5256"
         in2="result9" />
      <feComposite
         result="result12"
         id="feComposite5258"
         in2="SourceGraphic" />
      <feOffset
         dx="0"
         dy="24"
         id="feOffset5266"
         in="result4" />
      <feComposite
         id="feComposite5268"
         in2="result4"
         operator="xor" />
      <feOffset
         seed="78"
         id="feOffset5262"
         dy="100"
         dx="0"
         result="result13">
        <animate
           attributeName="dy"
           from="-600"
           to="600"
           dur="8s"
           repeatCount="indefinite" />
      </feOffset>
      <feComposite
         k4="0"
         k3="0"
         k1="0"
         id="feComposite5270"
         operator="arithmetic"
         k2="0.16"
         in2="result13" />
      <feBlend
         mode="lighten"
         id="feBlend5274"
         in2="result12" />
      <feComposite
         operator="in"
         id="feComposite5260"
         in2="SourceGraphic"
         result="result14" />
    </filter>
    <radialGradient
       inkscape:collect="always"
       xlink:href="#linearGradient6891"
       id="radialGradient6893"
       cx="92.87481689453125"
       cy="255.7918548583984"
       fx="92.87481689453125"
       fy="255.7918548583984"
       r="81.41514587402344"
       gradientTransform="matrix(3.89445207178512,-0.7536905868199744,0.4548538172667241,2.350309824735616,-161.7116276994015,297.2297752128538)"
       gradientUnits="userSpaceOnUse" />
    <linearGradient
       inkscape:collect="always"
       id="linearGradient6891">
      <stop
         style="stop-color:#ffffff;stop-opacity:0"
         offset="0"
         id="stop6887" />
      <stop
         id="stop6895"
         offset="0.6119788289"
         style="stop-color:#ffffff;stop-opacity:0" />
      <stop
         style="stop-color:#ffffff;stop-opacity:1"
         offset="1"
         id="stop6889" />
    </linearGradient>
    <radialGradient
       inkscape:collect="always"
       xlink:href="#linearGradient7665"
       id="radialGradient7667"
       cx="129.2083282470703"
       cy="111.8125457763672"
       fx="129.2083282470703"
       fy="111.8125457763672"
       r="143.1130871235573"
       gradientTransform="matrix(2.18623006403137,0.1410325612277475,-0.0516759443000017,0.8010597129653945,43.01492706903466,721.2708711710649)"
       gradientUnits="userSpaceOnUse" />
    <linearGradient
       inkscape:collect="always"
       xlink:href="#linearGradient9066"
       id="linearGradient9068"
       x1="382.4012451171875"
       y1="730.753662109375"
       x2="394.2677001953125"
       y2="742.6201171875"
       gradientUnits="userSpaceOnUse"
       spreadMethod="repeat"
       gradientTransform="translate(0.211317531347448)" />
  </defs>
  <sodipodi:namedview
     id="base"
     inkscape:snap-center="false"
     inkscape:zoom="0.8833333333333333"
     borderopacity="1"
     inkscape:snap-intersection-paths="false"
     inkscape:cx="300"
     inkscape:cy="300"
     inkscape:object-paths="false"
     inkscape:snap-page="true"
     inkscape:window-maximized="1"
     showgrid="false"
     width="1680px"
     inkscape:snap-midpoints="true"
     inkscape:snap-global="false"
     inkscape:document-units="px"
     bordercolor="#ffffff"
     inkscape:window-x="-8"
     inkscape:window-y="-8"
     inkscape:snap-smooth-nodes="true"
     inkscape:object-nodes="true"
     inkscape:window-width="1366"
     inkscape:pageopacity="0.7450980392"
     inkscape:pageshadow="2"
     pagecolor="#003af6"
     inkscape:snap-object-midpoints="false"
     inkscape:current-layer="layer1"
     inkscape:window-height="705"
     inkscape:pagecheckerboard="true"
     borderlayer="true"
     inkscape:showpageshadow="false"
     guidecolor="#00ffd4"
     guideopacity="1"
     guidehicolor="#ff0000"
     guidehiopacity="1"
     showguides="true"
     inkscape:guide-bbox="true" />
  <g
     id="layer1"
     inkscape:label="monoscope"
     inkscape:groupmode="layer"
     transform="translate(0,-452.3622)"
     style="display:inline">
    <path
       style="color:#000000;clip-rule:nonzero;display:inline;overflow:visible;visibility:visible;opacity:1;isolation:auto;mix-blend-mode:normal;color-interpolation:sRGB;color-interpolation-filters:linearRGB;solid-color:#000000;solid-opacity:1;vector-effect:none;fill:#ffffff;fill-opacity:1;fill-rule:nonzero;stroke:none;stroke-width:6;stroke-linecap:butt;stroke-linejoin:miter;stroke-miterlimit:4;stroke-dasharray:none;stroke-dashoffset:0;stroke-opacity:1;marker:none;paint-order:fill markers stroke;color-rendering:auto;image-rendering:auto;shape-rendering:auto;text-rendering:auto;enable-background:accumulate"
       d="m 5.018169925290433e-14,452.3621999999999 h 600 v 600.0000000000001 h -600 z"
       id="rect7113"
       inkscape:connector-curvature="0" />
    <g
       id="g9142">
      <path
         id="path7116"
         sodipodi:nodetypes="ssscssss"
         style="fill:url(#radialGradient7667);fill-opacity:1;stroke-width:0.9999999404"
         d="m 168.76387283967,868.3399279793291 c -21.3625780479549,14.2378178344891 -9.9857357572534,31.3339228177884 9.8094339178362,39.0584544203133 9.0850868913096,3.5452103697766 22.273677661497,6.3196024241703 36.254876296764,8.1310001155083 67.9563856812527,8.8043982026102 255.9657630047994,21.3509298111328 291.9872824912525,-3.5816204112625 42.307287238267,-33.4101389045462 -1.310006330767,-46.882544817464 -13.7106949332444,-50.9862807666723 -6.3410652400335,-2.0984364833256 -12.4944131949285,-3.2965577904087 -19.9816191125975,-4.1832488847907 -53.8547028401609,-6.3778779325747 -197.1107882936943,-5.3070555474095 -280.0373503334464,3.8862765835959 -14.2777186302952,1.5828439792117 -18.2718349854152,3.6431281458408 -24.3219283265644,7.675418943308 z"
         inkscape:connector-curvature="0" />
      <path
         inkscape:connector-curvature="0"
         d="m 273.5962235510175,838.036598152165 h -16.1779778401096 c -4.21300435941,0 -10.482805615704,2.253306154548 -11.4586731580123,6.3517443323656 l -10.0780992948545,29.146304471706 c -0.9758290110813,4.0984381778172 6.8615124654824,8.4442468329298 11.0745168248924,8.4442468329298 h 16.1779778401097 c 4.2130043594099,0 8.3903031151397,-3.2995574048301 9.366170657448,-7.3979955826477 l 6.9394739814316,-29.146304471706 c 0.9758418548236,-4.0984381778178 -1.630256214072,-7.3979955826477 -5.8433890109053,-7.3979955826477 z"
         style="fill:#232323;fill-opacity:1;stroke-width:0.9999999404"
         sodipodi:nodetypes="ccccccccc"
         id="path3868" />
      <path
         inkscape:connector-curvature="0"
         d="m 425.7842951793338,844.2529694403618 h 18.1880235149088 c 4.7366437342444,0 11.7856748377592,2.5332997373638 12.8822735579787,7.1411207360278 l 11.3306210469725,32.7682398090442 c 1.0971124699127,4.6078209986646 -7.7142085188367,9.4935805813711 -12.4508522530808,9.4935805813711 h -18.1880235149089 c -4.7366437342443,0 -9.4330865549923,-3.7095296600349 -10.5301990249053,-8.3173506586996 l -7.8019312789572,-32.7682398090436 c -1.0971124699129,-4.6078209986646 1.832930468055,-8.3173506586999 6.5695742022991,-8.3173506586999 z"
         style="fill:#232323;fill-opacity:1;stroke-width:0.9999999404"
         sodipodi:nodetypes="ccccccccc"
         id="path3859" />
      <path
         id="path3810"
         sodipodi:nodetypes="ccccccccc"
         style="fill:#232323;fill-opacity:1;stroke-width:0.9999999404"
         d="m 231.0988489262519,840.3343436551783 h -19.8602787664033 c -5.1720465992646,0 -12.8694298156476,2.7661567858245 -14.0664666008955,7.7975644065647 l -12.372120112592,35.7800973856602 c -1.1979486909533,5.0314076207401 8.4233115329304,10.3663128727617 13.5951012573484,10.3663128727617 h 19.8602787664033 c 5.1720465992646,0 10.3001675997573,-4.0505310189228 11.4981034469684,-9.081938639663 l 8.5189974132962,-35.7800973856605 c 1.1979486909533,-5.0314076207402 -2.0014403674375,-9.081938639663 -7.1734869667022,-9.081938639663 z"
         inkscape:connector-curvature="0" />
      <path
         id="rect3790"
         sodipodi:nodetypes="ccccccccc"
         style="fill:#232323;fill-opacity:1;stroke-width:0.9999999404"
         d="m 382.2183211926301,855.7481188265943 h 19.8602787664032 c 5.1720465992647,0 12.8694298156478,2.7661567858243 14.0664666008956,7.7975644065649 l 12.3721201125919,35.7800973856599 c 1.1979486909534,5.0314076207404 -8.4233115329303,10.366312872762 -13.5951012573484,10.366312872762 h -19.8602787664032 c -5.1720465992646,0 -10.3001675997573,-4.050531018923 -11.4981034469684,-9.0819386396633 l -8.5189974132962,-35.7800973856603 c -1.1979486909534,-5.0314076207401 2.0014403674375,-9.0819386396632 7.1734869667022,-9.0819386396632 z"
         inkscape:connector-curvature="0" />
      <path
         inkscape:connector-curvature="0"
         id="path9062"
         d="m 390.5539099654399,648.5299833557464 a 65.50308588802727,39.81560122605579 0 0 1 -65.5030858880274,39.8156012260556 65.50308588802727,39.81560122605579 0 0 1 -65.5030858880272,-39.8156012260556 65.50308588802727,39.81560122605579 0 0 1 65.5030858880272,-39.8156012260556 65.50308588802727,39.81560122605579 0 0 1 65.5030858880274,39.8156012260556 z"
         style="fill:#b9b8b8;stroke-width:0.9999999404" />
      <path
         inkscape:connector-curvature="0"
         d="m 342.529379255651,619.0719150088841 c 6.9383299048698,2.045587898074 12.3349695304106,4.7078519078802 17.8032224284547,7.3414706086851 0,0 7.5520955843187,-1.7028557474883 12.0474054001639,-1.0606686309391 0.6252975953841,-4.3771473863999 -13.7139532296453,-10.8594377500176 -23.322870617149,-12.6687999508955 z"
         style="fill:#a29f9f;stroke-width:0.9999999404"
         sodipodi:nodetypes="ccccc"
         id="path3829" />
      <path
         inkscape:connector-curvature="0"
         d="m 168.76387283967,826.8332484247423 c -21.362578047955,-49.64915963539 -9.9857357572534,-109.2655457506186 9.8094339178362,-136.2020122162419 9.0850868913096,-12.3626188813627 22.273677661497,-22.0372920371109 36.254876296764,-28.3538760941531 67.9563856812527,-30.7021045595936 255.9657630047994,-74.4535247521628 291.9872824912525,12.4895855263268 42.307287238267,116.5055866843718 -1.310006330767,163.4856534065989 -13.7106949332444,177.7959250797031 -6.3410652400335,7.3175264044311 -12.4944131949285,11.4955343498521 -19.9816191125975,14.5875438279897 -53.8547028401609,22.240506465983 -197.1107882936943,18.5064067492809 -280.0373503334464,-13.5519620161757 -14.2777186302952,-5.5195869419983 -18.2718349854152,-12.7040711566681 -24.3219283265644,-26.765204107449 z"
         style="fill:#00c4cc;stroke-width:0.9999999404"
         sodipodi:nodetypes="ssscssss"
         id="path9046" />
      <path
         transform="matrix(1.284374233098574,0,0,1.284374233098574,159.7647040199571,515.4916969941201)"
         inkscape:connector-curvature="0"
         d="m 46.71262947903748,132.4070337102836 c 35.9259986542369,-19.2010813427533 128.52897670204023,-47.48034727449903 145.53937052096253,4.9053662897164 22.8323187491311,70.3150863367036 -0.6687328946229,100.9477461701944 -7.7189999992085,111.7400000023744 -3.7370013818589,5.7204453229861 -11.1772683106924,10.3680770171346 -21.8018527351129,11.3871942540401 -31.6216004677256,3.0331650451315 -87.20972768860009,0.4166121657915 -123.07387892432976,-11.5859713493665 -8.09750659414273,-2.7099762802671 -12.74986018687266,-9.8963993522638 -15.59947034742336,-18.3384587227816 -10.94885239655912,-32.4363182200775 -6.40174666792828,-61.4084490527676 2.88763707796128,-79.0435234625881 4.06993371102649,-7.726409609114 12.06539660292291,-14.9482886997539 19.76719440715072,-19.0646070113947 z"
         style="fill:#555753;stroke-width:0.7785892487;filter:url(#filter5264)"
         sodipodi:nodetypes="ssssssss"
         id="path9048" />
      <path
         inkscape:connector-curvature="0"
         d="m 198.6171935965591,707.4987879498962 c -9.1817802627916,16.1119092526957 -13.6442120066178,33.5455334101297 -12.473485318506,50.9455504231954 34.1579327292565,-2.2430311606831 67.8591108664959,-22.664079749376 96.4051174273546,-39.9316063530799 45.5157621488054,-27.5325598386859 127.6452387470779,0.5217128211088 127.6452387470779,0.5217128211088 -4.9551158278901,-43.5377177459513 -23.9023868990348,-53.6471263790332 -41.8656494940407,-59.1483513164364 -13.1690039161538,-4.0329896844268 -28.0439269640446,-4.913170714274 -43.5356084222864,-3.5194191615599 -32.0326879095007,2.8819085024314 -69.0311537931798,13.51566764761 -104.4257752521315,30.9906491865112 -7.2928252670796,3.6006031892852 -17.0749147843111,11.9380516172109 -21.7498376874679,20.1414644002608 z"
         style="fill:url(#radialGradient6893);fill-opacity:1;stroke-width:0.9999999404"
         sodipodi:nodetypes="scscssss"
         id="path9055" />
      <path
         inkscape:connector-curvature="0"
         d="m 337.8945664083983,613.8490757648089 77.0624539859144,-79.6312024521118 3.8531226992958,12.8437423309856 -73.9028933724919,69.2984117468335 -7.0126833127183,-2.510823188284 z"
         style="fill:#b9b8b8;stroke-width:0.9999999404"
         sodipodi:nodetypes="ccccc"
         id="path9064" />
      <path
         inkscape:connector-curvature="0"
         id="path9066"
         d="m 436.7913823569885,539.3581735423675 a 17.33905214683075,14.12811656408431 0 0 1 -17.3390521468307,14.1281165640844 17.33905214683075,14.12811656408431 0 0 1 -17.3390521468308,-14.1281165640844 17.33905214683075,14.12811656408431 0 0 1 17.3390521468308,-14.1281165640842 17.33905214683075,14.12811656408431 0 0 1 17.3390521468307,14.1281165640842 z"
         style="fill:#b9b8b8;stroke-width:0.9999999404" />
      <path
         inkscape:connector-curvature="0"
         d="m 319.9133271450183,626.6928180957946 -70.6405828204216,-68.0718343542244 -2.5687484661972,8.9906196316897 60.2024734280296,53.3503368944489 13.0068578585892,5.7311347029324 z"
         style="fill:#b9b8b8;stroke-width:0.9999999404"
         sodipodi:nodetypes="ccccc"
         id="path9068" />
      <path
         inkscape:connector-curvature="0"
         id="path9070"
         d="m 237.075234888995,564.9423820156125 a 15.09139081703707,12.29668881388206 0 0 0 15.0913908170371,12.2966888138818 15.09139081703707,12.29668881388206 0 0 0 15.091390817037,-12.2966888138818 15.09139081703707,12.29668881388206 0 0 0 -15.091390817037,-12.2966888138824 15.09139081703707,12.29668881388206 0 0 0 -15.0913908170371,12.2966888138824 z"
         style="fill:#b9b8b8;stroke-width:0.8703699708" />
      <path
         inkscape:connector-curvature="0"
         d="m 256.4138650606248,556.4144288091068 c 0,0 8.0273389568661,0.6421871165493 7.7062453985914,5.7796840489435 -0.3210935582745,5.1374969323944 -3.532029141021,8.3484325151409 -3.532029141021,8.3484325151409 l -5.7796840489436,-4.1742162575705 c 0,0 6.1007776072182,-5.7796840489435 1.6054677913732,-9.9539003065139 z"
         style="fill:#a29f9f;stroke-width:0.9999999404"
         id="path3819" />
      <path
         inkscape:connector-curvature="0"
         d="m 425.7971389216647,530.4058505888607 c 0,0 8.8569162740245,0.6859714341557 8.5026858605358,6.1737300636582 -0.3542817884579,5.4877457857605 -3.8970482980677,8.91766717525 -3.8970482980677,8.91766717525 l -6.3833399384999,-4.4580629630851 c 0,0 6.7312769182464,-6.1737300636587 1.7714089422895,-10.6325636512836 z"
         style="fill:#a29f9f;stroke-width:0.9999999404"
         id="path3821" />
      <path
         inkscape:connector-curvature="0"
         d="m 258.0758453182543,576.184801379193 c 0.9081938639664,0 5.6761634857558,-2.9516204250837 5.6761634857558,-2.9516204250837 l -2.4974656962601,5.9032408501677 z"
         style="fill:#a29f9f;stroke-width:0.9999999404"
         id="path3823" />
      <path
         inkscape:connector-curvature="0"
         d="m 412.2983657317987,552.4007593306738 c 0,0 -7.3851518403168,-3.8531226992957 -7.5456986194541,-5.1374969323945 -0.1605467791373,-1.2843742330983 1.9265613496478,7.3851518403171 -0.3210935582747,9.4722599691022 -2.2476549079224,2.0871081287852 -3.2109355827464,5.1374969323941 -3.2109355827464,5.1374969323941 z"
         style="fill:#a29f9f;stroke-width:0.9999999404"
         sodipodi:nodetypes="csscc"
         id="path3827" />
      <path
         inkscape:connector-curvature="0"
         d="m 289.4993453052441,618.3854855561131 c 0,0 -21.5132684044012,5.137496932394 -26.9718588950701,26.6507653367953 4.495309815845,-0.6421871165492 8.8765671997908,-2.2798927011734 8.8765671997908,-2.2798927011734"
         style="fill:#ffffff;stroke-width:0.9999999404"
         sodipodi:nodetypes="ccc"
         id="path3831" />
      <path
         inkscape:connector-curvature="0"
         d="m 447.208330640011,664.4665747608587 c 33.2021321928478,110.5922561918812 -2.2705046395047,173.8209497202431 -13.7013500719022,188.147670936975 -7.4824965532531,9.3781026746974 -1.0706454708465,16.1288944420437 8.2596173406959,14.1992773855998 7.1857292758997,-1.486100236814 20.3378046038904,-3.6064159762781 31.6055327260926,-8.681980186723 5.1926922849453,-2.3390556491496 9.0544747755551,-5.0728772137529 12.9945558763769,-9.5710391618536 12.1715065236806,-13.8955026799988 57.5504053666631,-60.3002631414199 12.7555350720066,-172.6489148315593 -1.8628901797345,-4.6722581974956 -9.1307388646546,-16.7753279547387 -13.0130278206631,-19.9734819453829 -6.7812383079287,-5.5862519770576 -20.353020750997,-17.5257083523137 -31.1718102601945,-10.3831915764862 -5.6832077781085,3.7520285297302 -9.6872250319055,12.3892265134142 -7.7290528624122,18.9116593794301 z"
         style="fill:#00a7b3;stroke-width:0.9999999404"
         sodipodi:nodetypes="sssssssss"
         id="path3847" />
      <path
         inkscape:connector-curvature="0"
         id="path3945"
         d="m 450.6065618308895,704.8252380687075 a 15.60454728845775,17.93095744954471 0 0 1 -15.6045472884576,17.9309574495445 15.60454728845775,17.93095744954471 0 0 1 -15.6045472884578,-17.9309574495445 15.60454728845775,17.93095744954471 0 0 1 15.6045472884578,-17.930957449545 15.60454728845775,17.93095744954471 0 0 1 15.6045472884576,17.930957449545 z"
         style="fill:#007880;stroke-width:0.7953661084" />
      <path
         style="fill:#545454;stroke-width:0.7953884602"
         d="m 446.5247796617018,701.205224555021 a 15.60499782320633,17.93144763813981 0 0 1 -15.6049978232063,17.9314476381398 15.60499782320633,17.93144763813981 0 0 1 -15.6049978232065,-17.9314476381398 15.60499782320633,17.93144763813981 0 0 1 15.6049978232065,-17.9314476381398 15.60499782320633,17.93144763813981 0 0 1 15.6049978232063,17.9314476381398 z"
         id="path3904"
         inkscape:connector-curvature="0" />
      <path
         style="fill:#cacaca;stroke-width:0.5639852881"
         d="m 437.4404681532725,701.1896664667849 a 11.06502008310737,12.71463350928159 0 0 1 -11.0650200831074,12.7146335092815 11.06502008310737,12.71463350928159 0 0 1 -11.0650200831073,-12.7146335092815 11.06502008310737,12.71463350928159 0 0 1 11.0650200831073,-12.714633509282 11.06502008310737,12.71463350928159 0 0 1 11.0650200831074,12.714633509282 z"
         id="path3902"
         inkscape:connector-curvature="0" />
      <path
         id="path3906"
         style="fill:#a0a1a1;stroke-width:0.5639852881"
         d="m 437.2110542064019,698.6578530197592 c 0,0 -7.4229124427699,-2.578962809342 -20.4735962326906,6.2056742129969 0.095358344386,6.9276687198867 3.589158723409,9.0376816466515 9.6401564513508,9.0376816466515 6.1110230091006,0 11.0589358241959,-5.6873577435058 11.0589358241959,-12.7097710785425 0,-0.8637518054718 -0.082847727632,-1.7182841556386 -0.2256966621112,-2.5337155535217 z"
         sodipodi:nodetypes="ccssc"
         inkscape:transform-center-y="-20.506097"
         inkscape:transform-center-x="57.275649"
         inkscape:connector-curvature="0" />
      <path
         id="path3913"
         sodipodi:nodetypes="ccccc"
         style="fill:#cacaca;stroke-width:0.5639852881"
         d="m 436.9863092650044,685.2755587019642 c -2.5614966924322,0.1517192793141 -5.3724141698036,1.2706121959402 -7.0656785452317,3.0507503905477 1.7877817168562,0.5393683126518 3.4874153635939,1.8999526595833 4.6255802992463,3.0333315675721 1.2438522261925,-1.3018866769527 4.3787896899701,-2.5945164283646 6.3848859128909,-3.0309122778824 -0.891418065844,-0.9633999997369 -2.5504743091281,-2.4353683644341 -3.9447876669055,-3.0531696802374 z"
         inkscape:connector-curvature="0" />
      <path
         id="path3915"
         sodipodi:nodetypes="cssccc"
         style="fill:#2e3436;stroke-width:0.5639852881"
         d="m 425.166317078071,714.3215832539195 c 0.5314258910388,0.9758707604656 1.7259436483529,2.6226905834611 3.0296477099533,3.5431128944953 0.2070933480733,0.1462090543763 0.9775715248526,0.4968223662639 1.3799739857706,0.5427023663311 1.8807321917065,0.2144320710297 3.5062878846678,0.2396949543654 5.2999073019627,-0.5260003921388 -1.660739524503,-0.6357651849917 -5.0982970088006,-4.1309044522541 -5.0982970088006,-4.1309044522541 -1.3184143570405,0.4913548317975 -3.3362965771941,0.6219373755173 -4.611231988886,0.5710895835665 z"
         inkscape:connector-curvature="0" />
      <path
         id="path3919"
         sodipodi:nodetypes="ccccc"
         style="fill:#a0a1a1;stroke-width:0.5639852881"
         d="m 436.3162923281653,709.1883017912341 c 2.6942355184729,1.2329193565001 6.21919691151,2.5337155535212 6.21919691151,2.5337155535212 -0.5985418858624,1.2318176859052 -2.2973290238498,2.9705040319951 -3.5608793958662,4.0277109014945 -1.7699497391099,-0.8304942419323 -3.9620215772444,-2.073784347635 -5.3666774609788,-3.7007798623301 1.0522020715357,-0.8958572427944 2.0043528834477,-1.7562254339749 2.708359945335,-2.8606465926856 z"
         inkscape:connector-curvature="0" />
      <path
         inkscape:connector-curvature="0"
         d="m 239.8236030916905,565.6477951708523 c -2.1041903060854,-5.2763377869921 3.2602555532974,-8.3015528556326 3.2602555532974,-8.3015528556326 2.7606339766221,0.088994290612 7.5837160967539,3.7791427434694 7.5837160967539,3.7791427434694 0,0 -4.4901723189126,1.6225499686734 -3.9625513839557,7.9515608771131 0,0 -3.0580950490077,-3.3621064299819 -6.8815487035189,-3.4292792023731 z"
         style="fill:#ffffff;stroke-width:0.9999999404"
         sodipodi:nodetypes="ccccc"
         id="rect3654" />
      <path
         inkscape:connector-curvature="0"
         d="m 405.5682447503622,538.8557486684163 c -2.1040618686621,-5.2763377869925 3.2602555532974,-8.301552855633 3.2602555532974,-8.301552855633 2.7606339766219,0.088994290611 7.5837160967537,3.7791427434694 7.5837160967537,3.7791427434694 0,0 -4.4901723189125,1.6225499686733 -3.9625513839558,7.9515608771134 0,0 -3.0580950490077,-3.3621064299821 -6.8815487035188,-3.4292792023731 z"
         style="fill:#ffffff;stroke-width:0.9999999404"
         sodipodi:nodetypes="ccccc"
         id="path3657" />
      <path
         style="fill:#007880;stroke-width:0.7953661084"
         d="m 457.6706201241139,762.6220786130379 a 15.60454728845775,17.93095744954471 0 0 1 -15.6045472884578,17.9309574495445 15.60454728845775,17.93095744954471 0 0 1 -15.6045472884578,-17.9309574495445 15.60454728845775,17.93095744954471 0 0 1 15.6045472884578,-17.9309574495451 15.60454728845775,17.93095744954471 0 0 1 15.6045472884578,17.9309574495451 z"
         id="path6064"
         inkscape:connector-curvature="0" />
      <path
         inkscape:connector-curvature="0"
         id="path6066"
         d="m 453.588837954926,759.0020650993512 a 15.60499782320633,17.93144763813981 0 0 1 -15.6049978232063,17.9314476381401 15.60499782320633,17.93144763813981 0 0 1 -15.6049978232064,-17.9314476381401 15.60499782320633,17.93144763813981 0 0 1 15.6049978232064,-17.9314476381396 15.60499782320633,17.93144763813981 0 0 1 15.6049978232063,17.9314476381396 z"
         style="fill:#545454;stroke-width:0.7953884602" />
      <path
         inkscape:connector-curvature="0"
         id="path6068"
         d="m 444.5045264464967,758.9865070111147 a 11.06502008310737,12.71463350928159 0 0 1 -11.0650200831074,12.7146335092815 11.06502008310737,12.71463350928159 0 0 1 -11.0650200831074,-12.7146335092815 11.06502008310737,12.71463350928159 0 0 1 11.0650200831074,-12.7146335092815 11.06502008310737,12.71463350928159 0 0 1 11.0650200831074,12.7146335092815 z"
         style="fill:#cacaca;stroke-width:0.5639852881" />
      <path
         inkscape:connector-curvature="0"
         inkscape:transform-center-x="57.275649"
         inkscape:transform-center-y="-20.506097"
         sodipodi:nodetypes="ccssc"
         d="m 444.2751124996261,756.4546935640896 c 0,0 -7.4229124427699,-2.5789628093418 -20.4735962326907,6.2056742129963 0.095358344386,6.9276687198873 3.5891587234092,9.037681646652 9.6401564513509,9.037681646652 6.1110230091007,0 11.0589358241959,-5.6873577435059 11.0589358241959,-12.7097710785424 0,-0.8637518054716 -0.082847727632,-1.7182841556387 -0.2256966621113,-2.5337155535217 z"
         style="fill:#a0a1a1;stroke-width:0.5639852881"
         id="path6070" />
      <path
         inkscape:connector-curvature="0"
         d="m 444.0503675582286,743.0723992462944 c -2.5614966924322,0.1517192793142 -5.3724141698034,1.2706121959402 -7.0656785452317,3.0507503905477 1.7877817168561,0.539368312652 3.4874153635939,1.8999526595833 4.6255802992462,3.033331567572 1.2438522261926,-1.3018866769527 4.3787896899702,-2.5945164283645 6.384885912891,-3.0309122778823 -0.8914180658441,-0.9633999997375 -2.5504743091281,-2.435368364434 -3.9447876669055,-3.0531696802374 z"
         style="fill:#cacaca;stroke-width:0.5639852881"
         sodipodi:nodetypes="ccccc"
         id="path6072" />
      <path
         inkscape:connector-curvature="0"
         d="m 432.2303753712951,772.1184237982498 c 0.5314258910388,0.9758707604653 1.7259436483528,2.6226905834611 3.0296477099534,3.543112894495 0.2070933480733,0.1462090543763 0.9775715248525,0.4968223662643 1.3799739857706,0.5427023663316 1.8807321917065,0.2144320710298 3.506287884668,0.2396949543655 5.2999073019625,-0.5260003921393 -1.6607395245028,-0.6357651849911 -5.0982970088006,-4.1309044522535 -5.0982970088006,-4.1309044522535 -1.3184143570406,0.4913548317973 -3.3362965771938,0.6219373755171 -4.611231988886,0.5710895835662 z"
         style="fill:#2e3436;stroke-width:0.5639852881"
         sodipodi:nodetypes="cssccc"
         id="path6074" />
      <path
         inkscape:connector-curvature="0"
         d="m 443.3803506213895,766.9851423355645 c 2.6942355184728,1.2329193565001 6.2191969115099,2.5337155535212 6.2191969115099,2.5337155535212 -0.5985418858623,1.2318176859052 -2.2973290238497,2.970504031995 -3.5608793958661,4.0277109014944 -1.76994973911,-0.8304942419328 -3.9620215772444,-2.0737843476347 -5.3666774609788,-3.70077986233 1.0522020715356,-0.8958572427945 2.0043528834476,-1.7562254339748 2.708359945335,-2.8606465926856 z"
         style="fill:#a0a1a1;stroke-width:0.5639852881"
         sodipodi:nodetypes="ccccc"
         id="path6076" />
    </g>
    <path
       id="path8423"
       d="m 394.7263774547915,746.3441693211515 h -24.4791392830452 v -16.3969531539633 q 0,-7.1518625458782 -0.814033135303,-8.8962192643849 -0.755887911353,-1.802501942457 -3.4305682130633,-1.802501942457 -3.023551645412,0 -3.837584780715,2.1513732861581 -0.8140331353031,2.1513732861589 -0.8140331353031,9.3032358320363 v 43.7252084105694 q 0,6.8611364261269 0.8140331353031,8.9543644883354 0.814033135303,2.0932280622079 3.6631491088642,2.0932280622079 2.7328255256607,0 3.5468586609638,-2.0932280622079 0.8721783592533,-2.0932280622085 0.8721783592533,-9.8265428475885 v -11.8034804618959 h 24.4791392830452 v 3.6631491088641 q 0,14.5944512115068 -2.0932280622082,20.6996997262803 -2.0350828382579,6.1052485147742 -9.1288001601854,10.6987212068417 -7.0355720979773,4.5934726920682 -17.3854219611174,4.5934726920682 -10.7568664307917,0 -17.7342933048189,-3.8957300046651 -6.9774268740271,-3.8957300046651 -9.2450906080857,-10.7568664307919 -2.2676637340589,-6.9192816500772 -2.2676637340589,-20.7578449502306 v -27.5026909284569 q 0,-10.1754141912894 0.6977426874027,-15.2340486749589 0.6977426874028,-5.1167797076203 4.1283109004659,-9.8265428475886 3.4887134370135,-4.709763139968 9.5939619517874,-7.3844434416784 6.163393738724,-2.7328255256607 14.1292894199048,-2.7328255256607 10.8150116547422,0 17.8505837527193,4.1864561244164 7.0355720979774,4.1864561244161 9.2450906080857,10.4661403110407 2.2095185101086,6.221538962674 2.2095185101086,19.4205047993753 z m -122.9771472767434,-41.050528108859 h 24.4209940590949 q 11.5708995660949,0 17.5017124090179,1.8025019424565 5.9889580668734,1.8025019424573 9.6521071757375,7.3262982177289 3.6631491088642,5.4656510513211 3.6631491088642,17.6761480808684 0,8.2566218009323 -2.61653507776,11.5127543421445 -2.5583898538099,3.2561325412131 -10.1754141912895,5.0004892597194 8.4892026967328,1.9187923903577 11.5127543421447,6.3959746345247 3.0235516454117,4.4190370202174 3.0235516454117,13.6059824043532 v 8.7217835925337 q 0,9.5358167278372 -2.2095185101084,14.1292894199055 -2.1513732861584,4.5934726920674 -6.9192816500771,6.2796841866242 -4.7679083639184,1.6862114945568 -19.5367952472759,1.6862114945568 h -28.3167240637597 z m 24.4791392830452,16.1062270342125 v 20.932280622081 q 1.5699210466558,-0.05814522395 2.4420994059093,-0.05814522395 3.6050038849139,0 4.5934726920678,-1.744356718507 0.9884688071538,-1.802501942457 0.9884688071538,-10.1754141912892 0,-4.4190370202175 -0.814033135303,-6.1633937387243 -0.8140331353035,-1.802501942457 -2.1513732861584,-2.2676637340587 -1.2791949269049,-0.4651617916016 -5.0586344836695,-0.5233070155517 z m 0,35.5848770575381 v 26.3397864494524 q 5.17492493157,-0.1744356718507 6.5704103063753,-1.6280662706065 1.4536305987557,-1.4536305987557 1.4536305987557,-7.1518625458781 v -8.779928816484 q 0,-6.0471032908231 -1.2791949269049,-7.3262982177281 -1.2791949269049,-1.2791949269049 -6.7448459782261,-1.4536305987557 z m -42.6785925421538,-51.6911040917505 14.0129989720044,94.1371175754157 h -25.0605915225473 l -1.2210497029547,-16.920260169516 h -8.7799288164841 l -1.4536305987557,16.920260169516 h -25.3513176422984 l 12.4430779253485,-94.1371175754157 z m -12.9663849409003,60.5291781321847 q -1.8606471664072,-15.9899365863116 -3.7212943328145,-39.4806070622028 -3.7212943328144,26.9793839129045 -4.651617916018,39.4806070622028 z"
       inkscape:connector-curvature="0"
       style="fill:url(#linearGradient9068);fill-opacity:1;stroke:#000000;stroke-width:6;stroke-miterlimit:4;stroke-dasharray:none;paint-order:markers stroke fill" />
  </g>
  <metadata
     id="metadata4101">
    <rdf:RDF>
      <cc:Work>
        <dc:format>image/svg+xml</dc:format>
        <dc:type
           rdf:resource="http://purl.org/dc/dcmitype/StillImage" />
        <cc:license
           rdf:resource="http://creativecommons.org/publicdomain/zero/1.0/" />
        <dc:publisher>
          <cc:Agent
             rdf:about="http://openclipart.org/">
            <dc:title />
          </cc:Agent>
        </dc:publisher>
        <dc:title></dc:title>
        <dc:date>2017</dc:date>
        <dc:description />
        <dc:source />
        <dc:creator>
          <cc:Agent>
            <dc:title>Lazur URH</dc:title>
          </cc:Agent>
        </dc:creator>
        <dc:subject>
          <rdf:Bag />
        </dc:subject>
        <dc:contributor>
          <cc:Agent>
            <dc:title />
          </cc:Agent>
        </dc:contributor>
      </cc:Work>
      <cc:License
         rdf:about="http://creativecommons.org/publicdomain/zero/1.0/">
        <cc:permits
           rdf:resource="http://creativecommons.org/ns#Reproduction" />
        <cc:permits
           rdf:resource="http://creativecommons.org/ns#Distribution" />
        <cc:permits
           rdf:resource="http://creativecommons.org/ns#DerivativeWorks" />
      </cc:License>
    </rdf:RDF>
  </metadata>
</svg>
